<?xml version="1.0" encoding="UTF-8" standalone="no"?>
<!-- Created with Inkscape (http://www.inkscape.org/) -->

<svg
   width="180"
   height="180"
   viewBox="0 0 47.625 47.625"
   version="1.1"
   id="svg5"
   sodipodi:docname="drawing.svg"
   inkscape:version="1.1 (c4e8f9e, 2021-05-24)"
   xmlns:inkscape="http://www.inkscape.org/namespaces/inkscape"
   xmlns:sodipodi="http://sodipodi.sourceforge.net/DTD/sodipodi-0.dtd"
   xmlns="http://www.w3.org/2000/svg"
   xmlns:svg="http://www.w3.org/2000/svg">
  <sodipodi:namedview
     id="namedview25"
     pagecolor="#ffffff"
     bordercolor="#666666"
     borderopacity="1.0"
     inkscape:pageshadow="2"
     inkscape:pageopacity="0.0"
     inkscape:pagecheckerboard="true"
     showgrid="false"
     inkscape:zoom="8.6111111"
     inkscape:cx="27.232258"
     inkscape:cy="49.993548"
     inkscape:window-width="1296"
     inkscape:window-height="955"
     inkscape:window-x="0"
     inkscape:window-y="25"
     inkscape:window-maximized="0"
     inkscape:current-layer="svg5" />
  <defs
     id="defs2" />
  <g
     id="layer1">
    <path
       style="fill:none;stroke:#000000;stroke-width:0.264583px;stroke-linecap:butt;stroke-linejoin:miter;stroke-opacity:1"
       d="M 6.5753225,0 C 0,5.7764515 0,5.7764515 0,5.7764515 v -0.061452 z"
       id="path478" />
    <path
       style="fill:none;stroke:#000000;stroke-width:0.264583px;stroke-linecap:butt;stroke-linejoin:miter;stroke-opacity:1"
       d="M 0,10.446774 11.860161,0 Z"
       id="path695" />
    <path
       style="fill:none;stroke:#000000;stroke-width:0.264583px;stroke-linecap:butt;stroke-linejoin:miter;stroke-opacity:1"
       d="M 0.06145161,16.40758 18.558387,0 h 4.363064 L -0.06145161,20.770645 Z"
       id="path697" />
    <path
       style="fill:none;stroke:#000000;stroke-width:0.264583px;stroke-linecap:butt;stroke-linejoin:miter;stroke-opacity:1"
       d="M 6.5753225,0 H 11.860161 Z"
       id="path847" />
    <path
       style="fill:none;stroke:#000000;stroke-width:0.264583px;stroke-linecap:butt;stroke-linejoin:miter;stroke-opacity:1"
       d="M 11.860161,0 H 6.5753225 11.860161 6.5753225 11.860161 L 0,10.446774 V 5.7149994 L 6.5753225,0 Z"
       id="path849" />
    <path
       style="fill:none;stroke:#000000;stroke-width:0.264583px;stroke-linecap:butt;stroke-linejoin:miter;stroke-opacity:1"
       d="M 0.06145161,25.809677 28.513548,0 h 5.714999 L 0,31.709032 Z"
       id="path851" />
    <path
       style="fill:none;stroke:#000000;stroke-width:0.264583px;stroke-linecap:butt;stroke-linejoin:miter;stroke-opacity:1"
       d="m 43.876462,27.100159 -3.011131,-3.441291 -2.396611,3.379839 -0.06145,20.586289 h 5.469195 z"
       id="path853" />
    <path
       style="fill:none;stroke:#000000;stroke-width:0.264583px;stroke-linecap:butt;stroke-linejoin:miter;stroke-opacity:1"
       d="m 49.284204,27.161611 -3.011131,-3.441291 -2.396611,3.379839 -0.06145,20.586289 h 5.469195 z"
       id="path853-2" />
    <path
       style="fill:none;stroke:#000000;stroke-width:0.264583px;stroke-linecap:butt;stroke-linejoin:miter;stroke-opacity:1"
       d="m 38.407267,27.100159 -3.011131,-3.441291 -2.396611,3.379839 -0.06145,20.586289 h 5.469195 z"
       id="path853-7" />
    <path
       style="fill:none;stroke:#000000;stroke-width:0.264583px;stroke-linecap:butt;stroke-linejoin:miter;stroke-opacity:1"
       d="m 32.938072,27.100159 -3.011131,-3.441291 -2.396611,3.379839 -0.06145,20.586289 h 5.469195 z"
       id="path853-0" />
    <path
       style="fill:none;stroke:#000000;stroke-width:0.264583px;stroke-linecap:butt;stroke-linejoin:miter;stroke-opacity:1"
       d="m 27.468877,27.100159 -3.011131,-3.441291 -2.396611,3.379839 -0.06145,20.586289 h 5.469195 z"
       id="path853-3" />
    <path
       style="fill:none;stroke:#000000;stroke-width:0.264583px;stroke-linecap:butt;stroke-linejoin:miter;stroke-opacity:1"
       d="m 21.999682,27.100159 -3.011131,-3.441291 -2.396611,3.379839 -0.06145,20.586289 h 5.469195 z"
       id="path853-9" />
    <path
       style="fill:none;stroke:#000000;stroke-width:0.264583px;stroke-linecap:butt;stroke-linejoin:miter;stroke-opacity:1"
       d="m 16.530487,27.100159 -3.011131,-3.441291 -2.396611,3.379839 -0.06145,20.586289 h 5.469195 z"
       id="path853-8" />
    <path
       style="fill:none;stroke:#000000;stroke-width:0.264583px;stroke-linecap:butt;stroke-linejoin:miter;stroke-opacity:1"
       d="M 11.061292,27.100159 8.0501609,23.658868 5.6535497,27.038707 5.5920997,47.624996 H 11.061295 Z"
       id="path853-6" />
    <path
       style="fill:none;stroke:#000000;stroke-width:0.264583px;stroke-linecap:butt;stroke-linejoin:miter;stroke-opacity:1"
       d="m 5.5920967,27.100159 -3.011131,-3.441291 -2.39661095,3.379839 -0.06145,20.586289 H 5.5920997 Z"
       id="path853-5" />
    <path
       style="fill:none;stroke:#000000;stroke-width:0.264583px;stroke-linecap:butt;stroke-linejoin:miter;stroke-opacity:1"
       d="M 39.194472,0.0869057 0,35.631339 0.0869057,41.019491 45.886211,0.0869057 Z"
       id="path1744" />
    <path
       style="fill:none;stroke:#000000;stroke-width:0.264583px;stroke-linecap:butt;stroke-linejoin:miter;stroke-opacity:1"
       d="M 47.798137,5.2143421 0.12290475,47.624994 7.908419,47.53742 47.798137,11.819176 Z"
       id="path1746" />
    <path
       style="fill:#ffffff;stroke-width:0.328463"
       d="m 1.31385,110.01317 v -7.44942 l 4.1524315,-5.871932 c 2.2838376,-3.229564 4.2544487,-5.871935 4.3791367,-5.871935 0.2112728,0 7.8961528,8.636969 8.7877898,9.876517 0.354126,0.49231 -0.608356,1.50059 -7.860323,8.23439 -4.5451239,4.22037 -8.5327756,7.86654 -8.8614483,8.1026 -0.5728576,0.41144 -0.5975867,0.12094 -0.5975867,-7.02022 z"
       id="path1822"
       transform="scale(0.26458333)" />
    <path
       style="fill:#ffffff;stroke-width:0.328463"
       d="m 15.219972,94.665709 -4.65201,-5.323908 1.038922,-1.053625 c 0.571407,-0.57949 22.545005,-20.566417 48.830217,-44.41539 L 108.2284,0.51101911 l 9.73675,-0.009163 9.73675,-0.009163 -2.34635,2.24555359 C 123.68315,4.338811 53.382873,69.443515 32.411274,88.813442 c -0.908879,0.839465 -0.937222,0.843817 -1.399179,0.214838 -0.590844,-0.804464 -0.65163,-0.747148 -3.647696,3.439452 -2.098835,2.932842 -6.51944,7.565698 -7.190252,7.535488 -0.166191,-0.0075 -2.39557,-2.409361 -4.954175,-5.337511 z"
       id="path1861"
       transform="scale(0.26458333)" />
    <path
       style="fill:#ffffff;stroke-width:0.328463"
       d="M 0.65692501,30.109241 V 22.211464 L 12.822253,11.51631 24.98758,0.82115626 h 8.921966 c 5.021512,0 8.785548,0.12384255 8.609925,0.28327974 C 42.34785,1.2602399 34.004081,8.6015544 23.977763,17.418468 13.951445,26.235383 4.6025808,34.474725 3.2025094,35.728121 l -2.54558439,2.278896 z"
       id="path1900"
       transform="scale(0.26458333)" />
  </g>
  <path
     style="fill:#ffffff;stroke:#ffffff;stroke-width:0.239121"
     d="m 166.53049,141.07772 v -38.42704 l 3.99694,-5.669054 c 2.19832,-3.117977 4.09652,-5.786162 4.21822,-5.9293 0.12171,-0.143137 2.60952,2.469129 5.52848,5.805035 l 5.30719,6.065289 v 38.29105 38.29106 h -9.52542 -9.52541 z"
     id="path916"
     transform="scale(0.26458333)" />
  <path
     style="fill:#ffffff;stroke:#ffffff;stroke-width:0.239121"
     d="m 145.91299,140.95236 0.17404,-38.55239 4.13008,-5.800789 c 2.27155,-3.190432 4.24773,-5.763442 4.39152,-5.7178 0.14379,0.04564 2.58942,2.7437 5.43473,5.995684 l 5.17328,5.912695 -2.1e-4,10.02761 c -1.1e-4,5.51518 -0.0984,22.77606 -0.21835,38.3575 l -0.21813,28.32989 h -9.5205 -9.5205 z"
     id="path955"
     transform="scale(0.26458333)" />
  <path
     style="fill:#ffffff;stroke:#ffffff;stroke-width:0.239121"
     d="m 125.2505,140.93066 0.21477,-38.5741 4.18192,-5.896518 4.18193,-5.896522 1.1926,1.359916 c 0.65594,0.747953 3.06217,3.499222 5.3472,6.113931 l 4.15458,4.754013 v 38.35669 38.35669 h -9.74389 -9.74388 z"
     id="path994"
     transform="scale(0.26458333)" />
  <path
     style="fill:#ffffff;stroke:#ffffff;stroke-width:0.239121"
     d="m 104.45108,162.80717 c 0,-9.18368 0.0981,-24.04363 0.21804,-33.02213 l 0.21804,-16.32453 7.91141,-7.0766 7.9114,-7.0766 1.5602,1.69152 1.56019,1.69152 v 38.40721 38.4072 h -9.68964 -9.68964 z"
     id="path1033"
     transform="scale(0.26458333)" />
  <path
     style="fill:#ffffff;stroke:#ffffff;stroke-width:0.239121"
     d="m 63.143464,165.15402 0.08557,-14.35075 9.361182,-8.45513 c 5.148649,-4.65033 9.472037,-8.46516 9.607528,-8.4774 0.135491,-0.0123 0.246347,10.2504 0.246347,22.80587 v 22.82815 h -9.693097 -9.693096 z"
     id="path1111"
     transform="scale(0.26458333)" />
  <path
     style="fill:#ffffff;stroke:#ffffff;stroke-width:0.239121"
     d="m 42.371663,174.47544 v -5.02932 l 8.777608,-7.86284 c 4.827685,-4.32455 9.188025,-8.20854 9.689644,-8.63107 l 0.912036,-0.76824 v 13.6604 13.66039 h -9.689644 -9.689644 z"
     id="path1150"
     transform="scale(0.26458333)" />
  <path
     style="fill:#ffffff;stroke:#ffffff;stroke-width:0.239121"
     d="m 31.384592,179.2378 c 0.171622,-0.14684 2.418306,-2.15492 4.99263,-4.46242 l 4.680591,-4.19546 v 4.46242 4.46242 h -4.99263 c -2.745947,0 -4.852212,-0.12014 -4.680591,-0.26696 z"
     id="path1189"
     transform="scale(0.26458333)" />
  <path
     style="fill:#ffffff;stroke:#ffffff;stroke-width:0.239121"
     d="m 21.68086,172.68916 c 0.0013,-3.56792 0.09752,-7.49511 0.213861,-8.72709 l 0.211526,-2.23996 8.900974,-7.91655 c 4.895535,-4.35411 9.159638,-8.13584 9.475783,-8.40387 0.545881,-0.46279 0.573933,0.11447 0.557409,11.47036 l -0.0174,11.95768 -5.812809,5.17227 -5.81281,5.17227 -3.859434,0.001 -3.859435,10e-4 z"
     id="path1228"
     transform="scale(0.26458333)" />
  <path
     style="fill:#ffffff;stroke:#ffffff;stroke-width:0.239121"
     d="m 3.1295178,178.57008 c 0.3562905,-0.33342 4.0473879,-3.60984 8.2024382,-7.28095 4.155051,-3.6711 7.887206,-6.97147 8.293679,-7.33414 l 0.73904,-0.65941 v 7.94036 7.94036 h -8.941479 c -8.7071802,0 -8.9245046,-0.0159 -8.2936782,-0.60622 z"
     id="path1267"
     transform="scale(0.26458333)" />
  <path
     style="fill:#ffffff;stroke:#ffffff;stroke-width:0.239121"
     d="m 1.096722,173.62233 c 0.1194204,-2.78371 0.221316,-8.1048 0.2264347,-11.82465 l 0.00931,-6.76338 7.6274465,-6.78956 c 4.1950948,-3.73426 8.4773428,-7.55215 9.5161058,-8.48418 l 1.888659,-1.69462 v 11.64999 11.64999 l -8.455387,7.50922 c -4.6504631,4.13008 -9.0346064,8.02655 -9.7425406,8.65884 l -1.28715319,1.14962 z"
     id="path1306"
     transform="scale(0.26458333)" />
  <path
     style="fill:#ffffff;stroke:#ffffff;stroke-width:0.239121"
     d="m 22.006988,148.22816 v -11.6369 l 8.293678,-7.39142 c 4.561523,-4.06528 8.847959,-7.87559 9.525413,-8.46736 l 1.231734,-1.07595 v 11.65774 11.65775 l -8.293678,7.36989 c -4.561523,4.05344 -8.847959,7.85438 -9.525413,8.44652 l -1.231734,1.07663 z"
     id="path1345"
     transform="scale(0.26458333)" />
  <path
     style="fill:#ffffff;stroke:#ffffff;stroke-width:0.239121"
     d="M 42.700126,129.80778 V 118.136 l 9.012659,-8.07419 c 4.956963,-4.44081 9.15368,-8.0742 9.326039,-8.0742 0.17236,0 0.403099,0.2338 0.512754,0.51956 0.109655,0.28575 0.199373,5.3618 0.199373,11.2801 v 10.76055 l -8.292022,7.36014 c -4.560612,4.04808 -8.847048,7.85772 -9.525413,8.46587 l -1.23339,1.10572 z"
     id="path1384"
     transform="scale(0.26458333)" />
  <path
     style="fill:#ffffff;stroke:#ffffff;stroke-width:0.239121"
     d="m 42.486667,159.79701 c 0.116571,-4.24538 0.212287,-9.67177 0.212703,-12.05864 l 7.56e-4,-4.33976 8.950603,-7.95016 c 4.922832,-4.37259 9.209267,-8.17017 9.525413,-8.43907 0.545848,-0.46427 0.574809,0.10775 0.574809,11.35352 v 11.84243 l -9.114835,8.13528 c -5.013159,4.47441 -9.395311,8.36928 -9.738115,8.65528 -0.610087,0.50898 -0.618794,0.35659 -0.411334,-7.19888 z"
     id="path1423"
     transform="scale(0.26458333)" />
  <path
     style="fill:#ffffff;stroke:#ffffff;stroke-width:0.239121"
     d="m 63.393263,136.84774 v -11.83736 l 8.960383,-7.98042 c 4.928211,-4.38922 9.214647,-8.18327 9.525413,-8.43121 0.532286,-0.42467 0.564847,0.23202 0.561872,11.33196 l -0.0032,11.78275 -8.0944,7.22618 c -4.451921,3.9744 -8.736936,7.79302 -9.522255,8.48583 l -1.427855,1.25964 z"
     id="path1462"
     transform="scale(0.26458333)" />
  <path
     style="fill:#ffffff;stroke:#ffffff;stroke-width:0.239121"
     d="m 63.393263,112.75118 v -10.33446 l 2.929922,-4.073991 c 1.611457,-2.240695 3.676821,-4.706973 4.589697,-5.480618 l 1.659776,-1.406628 1.111317,1.242397 c 0.611224,0.683318 2.832296,3.208122 4.935715,5.610675 l 3.824399,4.368275 v 1.73855 1.73854 l -8.292022,7.36014 c -4.560613,4.04808 -8.847048,7.85772 -9.525413,8.46587 l -1.233391,1.10572 z"
     id="path1501"
     transform="scale(0.26458333)" />
  <path
     style="fill:#ffffff;stroke:#ffffff;stroke-width:0.11956"
     d="m 42.535894,109.63505 c 0,-3.86842 0.06652,-6.89776 0.156681,-7.13489 0.08618,-0.22666 2.021797,-3.041541 4.301384,-6.2553 3.289821,-4.637988 4.185567,-5.800068 4.342829,-5.634088 1.183467,1.249079 8.769101,10.066218 8.735081,10.153198 -0.0601,0.15366 -17.337414,15.59387 -17.44926,15.59387 -0.04769,0 -0.08671,-3.02525 -0.08671,-6.72279 z"
     id="path1579"
     transform="scale(0.26458333)" />
  <path
     style="fill:#ffffff;stroke:#ffffff;stroke-width:0.11956"
     d="m 21.853424,125.28865 0.01067,-9.66985 8.535165,-7.71887 c 4.694341,-4.24538 8.556818,-7.71887 8.583282,-7.71887 0.02647,0 0.541182,0.5631 1.143812,1.25133 l 1.095693,1.25133 -0.01242,7.53504 -0.01242,7.53505 -9.019868,8.04733 c -4.960928,4.42603 -9.315678,8.29709 -9.677224,8.60235 l -0.657355,0.55501 z"
     id="path1618"
     transform="scale(0.26458333)" />
  <path
     style="fill:#ffffff;stroke:#ffffff;stroke-width:0.11956"
     d="m 1.1496188,143.97669 v -9.52786 l 9.6073182,-8.71703 c 5.284026,-4.79437 9.644365,-8.71703 9.689644,-8.71703 0.04528,0 0.08233,4.31192 0.08233,9.58205 v 9.58204 l -8.82743,7.8872 c -4.8550867,4.33796 -9.2154264,8.23624 -9.6896442,8.66284 l -0.862214,0.77564 z"
     id="path1657"
     transform="scale(0.26458333)" />
  <path
     style="fill:#ffffff;stroke:#ffffff;stroke-width:0.11956"
     d="m 1.1567578,126.18378 0.00714,-6.62343 8.8653092,-8.21156 c 10.581381,-9.80109 9.922406,-9.22527 10.248102,-8.95496 0.218297,0.18117 0.250516,1.04845 0.24342,6.55266 l -0.0082,6.34385 -8.705723,7.8831 c -4.7881475,4.3357 -9.1448068,8.277 -9.681465,8.75843 l -0.9757423,0.87534 z"
     id="path1696"
     transform="scale(0.26458333)" />
  <path
     style="fill:#ffffff;stroke:#ffffff;stroke-width:0.11956"
     d="m 21.89852,111.06138 c 0.0591,-1.55814 0.108281,-4.16326 0.109281,-5.78915 l 0.0018,-2.95616 2.0733,-2.916833 c 2.01548,-2.835487 3.383589,-4.301753 6.97503,-7.475458 l 0.423436,-0.374185 3.32107,3.79023 c 1.826588,2.084626 3.297672,3.848116 3.269076,3.918865 -0.07758,0.191924 -16.03054,14.635681 -16.164941,14.635681 -0.06354,0 -0.06718,-1.27484 -0.0081,-2.83299 z"
     id="path1735"
     transform="scale(0.26458333)" />
  <path
     style="fill:#ffffff;stroke:#ffffff;stroke-width:0.11956"
     d="m 41.210798,100.79693 c -0.31383,-0.33873 -0.740153,-0.810554 -0.947384,-1.048506 l -0.376783,-0.432639 4.465599,-4.04946 c 2.45608,-2.227203 4.500458,-4.014602 4.543062,-3.971998 0.0649,0.0649 -6.96663,10.118473 -7.07692,10.118473 -0.02033,0 -0.293743,-0.27714 -0.607574,-0.61587 z"
     id="path1774"
     transform="scale(0.26458333)" />
  <path
     style="fill:#ffffff;stroke:#ffffff;stroke-width:0.0105677"
     d="m 62.112191,101.23778 -0.35797,-0.40875 0.03862,-0.0396 c 0.0615,-0.0631 3.492996,-3.128842 3.49767,-3.124882 0.0038,0.0032 -2.788504,3.948952 -2.811135,3.972442 -0.0051,0.005 -0.170296,-0.17438 -0.36718,-0.3992 z"
     id="path1813"
     transform="scale(0.26458333)" />
  <path
     style="fill:#ffffff;stroke:#ffffff;stroke-width:0.169084"
     d="m 56.322581,94.419395 c -2.554839,-2.931067 -4.645162,-5.421154 -4.645162,-5.53353 0,-0.112376 21.739355,-19.921234 48.309678,-44.019687 l 48.309673,-43.8153693 11.66102,-0.00282 11.66102,-0.00282 -1.09328,1.0091379 C 166.09235,6.1463125 72.871907,89.303226 72.717873,89.303226 c -0.108064,0 -0.32659,-0.156774 -0.485615,-0.348387 -0.159024,-0.191613 -0.377619,-0.348387 -0.485765,-0.348387 -0.108146,0 -1.031932,1.185261 -2.052859,2.633913 -1.533842,2.17646 -2.42321,3.134494 -5.120765,5.516129 -1.795494,1.585219 -3.341168,2.906942 -3.434831,2.937163 -0.09366,0.03022 -2.260619,-2.343198 -4.815457,-5.274262 z"
     id="path2000"
     transform="scale(0.26458333)" />
  <path
     style="fill:#ffffff;stroke:#ffffff;stroke-width:0.169084"
     d="m 100.8,98.003601 c -1.596774,-1.839539 -2.903226,-3.449408 -2.903226,-3.577485 0,-0.169673 49.826996,-44.622987 81.696776,-72.886044 C 179.98003,21.197327 180,21.749869 180,32.786882 v 11.607264 l -29.55484,26.467311 -29.55484,26.467309 -3.81831,-4.365806 c -2.10007,-2.401193 -3.92089,-4.331613 -4.04627,-4.28982 -0.12537,0.04179 -2.14941,2.787431 -4.49785,6.101422 -2.34845,3.31399 -4.39472,6.148788 -4.54728,6.299548 -0.21407,0.21154 -0.94005,-0.4893 -3.18061,-3.070509 z"
     id="path2039"
     transform="scale(0.26458333)" />
  <path
     style="fill:#ffffff;stroke:#ffffff;stroke-width:0.169084"
     d="M 104.74839,106.97421 V 102.321 l 4.2134,-5.941935 c 2.31738,-3.268063 4.28613,-5.857384 4.37501,-5.754047 0.0889,0.103337 1.60582,1.841567 3.37098,3.862735 l 3.20938,3.674849 -0.55858,0.529973 c -1.28793,1.221968 -14.05388,12.595135 -14.31987,12.757565 -0.2285,0.13952 -0.29032,-0.81366 -0.29032,-4.47593 z"
     id="path2078"
     transform="scale(0.26458333)" />
  <path
     style="fill:#ffffff;stroke:#ffffff;stroke-width:0.169084"
     d="m 84.077419,103.49916 c 0,-1.15439 0.08503,-1.29807 4.213406,-7.120095 2.317372,-3.268063 4.283454,-5.857384 4.36907,-5.754047 0.08562,0.103337 0.84236,0.971756 1.681652,1.929821 l 1.525987,1.741935 -5.091068,4.529032 c -2.800087,2.490964 -5.452863,4.826594 -5.895057,5.190274 l -0.80399,0.66123 z"
     id="path2117"
     transform="scale(0.26458333)" />
  <path
     style="fill:#ffffff;stroke:#ffffff;stroke-width:0.014945"
     d="m 0.71263741,100.29012 c 0.005529,-0.556779 0.0160405,-1.351092 0.0233598,-1.765136 l 0.0133078,-0.752809 3.40691429,-3.090403 c 1.8738026,-1.699721 3.4099526,-3.087364 3.4136663,-3.08365 0.00371,0.0037 -1.5251418,2.167345 -3.3974567,4.80807 -1.8723149,2.640725 -3.41897667,4.822678 -3.43702622,4.848788 -0.03021,0.0437 -0.0320187,-0.033 -0.0227653,-0.96486 z"
     id="path2156"
     transform="scale(0.26458333)" />
  <path
     style="fill:#ffffff;stroke:#ffffff;stroke-width:0.0845419"
     d="m 83.860764,122.60957 c 0.0086,-4.39462 0.04778,-9.82972 0.0871,-12.078 l 0.07149,-4.08778 6.154839,-5.4754 c 3.385161,-3.011473 6.238883,-5.549981 6.341605,-5.64113 0.167062,-0.14824 0.531561,0.228484 3.454839,3.570706 l 3.268073,3.736434 v 5.29664 5.29664 l -7.925808,7.09467 c -4.359193,3.90207 -8.722742,7.8108 -9.696774,8.68606 l -1.770968,1.59138 z"
     id="path2472"
     transform="scale(0.26458333)" />
  <path
     style="fill:#ffffff;stroke:#ffffff;stroke-width:0.0845419"
     d="m 83.729032,171.13539 c 0,-4.58812 0.03478,-15.24997 0.07729,-23.69299 l 0.07729,-15.35095 9.241924,-8.27153 c 5.083058,-4.54934 9.437964,-8.44745 9.677554,-8.66247 l 0.43563,-0.39093 v 32.35545 32.35545 h -9.754843 -9.754839 z"
     id="path2511"
     transform="scale(0.26458333)" />
  <path
     style="fill:#ffffff;stroke:#ffffff;stroke-width:0.0845419"
     d="M 0.40915302,75.250657 C 0.44858489,74.165377 0.5498807,70.805195 0.63425481,67.783588 0.71862892,64.761981 0.80640602,62.271974 0.82931502,62.250241 0.85222402,62.228507 16.519428,48.330893 35.645325,31.366653 L 70.419681,0.52258065 h 7.378546 7.378548 L 84.772258,0.91276807 C 84.549774,1.1273712 65.633226,18.223577 42.735484,38.904337 19.837742,59.585097 0.93092821,76.667308 0.72034226,76.864807 L 0.3374587,77.223895 Z"
     id="path92"
     transform="scale(0.26458333)" />
</svg>
